#!OML:ASF H:\LiuWeirdWalks\Patient Classification 1\Patient 1\Session 1\male.ASF
:FULLY-SPECIFIED
:DEGREES
1285
root 3.92066 18.188 21.8174 6.38864 2.92197 -9.74335
lowerback 9.82184 0.63793 -3.86461
upperback 0.198452 0.442911 0.578265
thorax -5.34339 0.324495 2.71997
lowerneck -23.3892 -0.149395 4.34423
upperneck 16.7384 -1.23311 -1.96887
head 9.04887 -0.51639 -1.56194
rclavicle 1.59028e-014 -9.54166e-015
rhumerus -25.1603 -27.4847 -3.05503
rradius 42.1136
rwrist -5.84905
rhand -22.4712 -13.0166
rfingers 7.12502
rthumb 3.95378 -42.9597
lclavicle 1.59028e-014 -9.54166e-015
lhumerus -25.6594 18.2212 31.2646
lradius 39.4111
lwrist 19.2622
lhand -23.6077 -4.92782
lfingers 7.12502
lthumb 2.85619 25.0328
rfemur -1.47692 -7.55173 21.789
rtibia 37.2225
rfoot 3.08722 -15.4604
rtoes -10.1725
lfemur -20.556 -0.000373166 -8.23213
ltibia 30.2545
lfoot -9.10033 15.2544
ltoes -5.98268
1286
root 3.94397 18.1913 21.8767 6.37667 2.87265 -9.64122
lowerback 9.78407 0.653106 -3.9747
upperback 0.226589 0.449365 0.516787
thorax -5.29355 0.328216 2.71683
lowerneck -23.4047 -0.156291 4.36031
upperneck 16.7686 -1.26321 -1.90369
head 9.06151 -0.521365 -1.54667
rclavicle -1.59028e-014 6.36111e-015
rhumerus -25.131 -27.5061 -3.14495
rradius 42.076
rwrist -5.81848
rhand -22.4596 -12.6095
rfingers 7.12502
rthumb 3.96493 -42.5523
lclavicle -1.59028e-014 6.36111e-015
lhumerus -25.6912 18.2056 31.1379
lradius 39.477
lwrist 19.3932
lhand -23.6434 -4.80737
lfingers 7.12502
lthumb 2.82177 25.1537
rfemur -1.92984 -7.69513 21.7312
rtibia 38.0673
rfoot 3.14628 -16.3743
rtoes -9.8207
lfemur -20.1811 -0.0150411 -8.42048
ltibia 30.0442
lfoot -9.24546 15.2788
ltoes -6.08033
1287
root 3.96633 18.1942 21.935 6.36325 2.82886 -9.52687
lowerback 9.7761 0.672007 -4.08521
upperback 0.234341 0.459118 0.454334
thorax -5.28219 0.334631 2.71235
lowerneck -23.3728 -0.178812 4.35976
upperneck 16.7865 -1.30897 -1.82866
head 9.06143 -0.533701 -1.52698
rclavicle -2.10712e-014 -2.06736e-014
rhumerus -25.138 -27.493 -3.23684
rradius 42.0366
rwrist -5.77406
rhand -22.4112 -12.2343
rfingers 7.12502
rthumb 4.01171 -42.1763
lclavicle -2.10712e-014 -2.06736e-014
lhumerus -25.7152 18.149 31.0048
lradius 39.5473
lwrist 19.5031
lhand -23.6991 -4.66312
lfingers 7.12502
lthumb 2.76792 25.2987
rfemur -2.40231 -7.83929 21.6791
rtibia 38.8909
rfoot 3.10646 -17.4053
rtoes -9.39639
lfemur -19.8201 -0.0107045 -8.62158
ltibia 29.8486
lfoot -9.3916 15.2917
ltoes -6.18636
1288
root 3.98836 18.1968 21.9926 6.34471 2.79838 -9.42125
lowerback 9.76814 0.68896 -4.17269
upperback 0.246979 0.469445 0.399751
thorax -5.2656 0.34065 2.70304
lowerneck -23.3276 -0.205948 4.35527
upperneck 16.7679 -1.35706 -1.76205
head 9.04627 -0.548891 -1.50937
rclavicle -1.59028e-015 3.18055e-015
rhumerus -25.1555 -27.4873 -3.3389
rradius 41.9825
rwrist -5.73596
rhand -22.347 -11.9367
rfingers 7.12502
rthumb 4.07366 -41.8775
lclavicle -1.59028e-015 3.18055e-015
lhumerus -25.7208 18.0664 30.8768
lradius 39.6284
lwrist 19.6237
lhand -23.7693 -4.46762
lfingers 7.12502
lthumb 2.70021 25.495
rfemur -2.88437 -8.00096 21.645
rtibia 39.6835
rfoot 2.96978 -18.4887
rtoes -8.84222
lfemur -19.4706 0.00352331 -8.81398
ltibia 29.669
lfoot -9.53713 15.2965
ltoes -6.30356
1289
root 4.01082 18.1989 22.0499 6.32401 2.79068 -9.31947
lowerback 9.76207 0.702096 -4.22715
upperback 0.264014 0.478736 0.350388
thorax -5.24509 0.345238 2.68073
lowerneck -23.3131 -0.234051 4.34771
upperneck 16.7691 -1.40443 -1.707
head 9.04322 -0.565064 -1.49565
rclavicle 1.74931e-014 2.06736e-014
rhumerus -25.1995 -27.5005 -3.43987
rradius 41.926
rwrist -5.68828
rhand -22.2594 -11.6987
rfingers 7.12502
rthumb 4.15831 -41.6379
lclavicle 1.74931e-014 2.06736e-014
lhumerus -25.6991 18.0311 30.7559
lradius 39.7026
lwrist 19.7045
lhand -23.8254 -4.33548
lfingers 7.12502
lthumb 2.64593 25.6279
rfemur -3.37316 -8.18962 21.618
rtibia 40.4379
rfoot 2.71301 -19.5478
rtoes -8.24194
lfemur -19.1352 0.0179529 -9.00565
ltibia 29.5053
lfoot -9.684 15.2893
ltoes -6.43038
1290
root 4.03347 18.2004 22.107 6.30826 2.80157 -9.19525
lowerback 9.77332 0.712889 -4.28617
upperback 0.265529 0.483393 0.303329
thorax -5.25035 0.348481 2.66399
lowerneck -23.295 -0.267079 4.32863
upperneck 16.7789 -1.45277 -1.65987
head 9.04254 -0.583263 -1.48301
rclavicle 2.38542e-015 6.36111e-015
rhumerus -25.2539 -27.493 -3.54616
rradius 41.8751
rwrist -5.64207
rhand -22.1508 -11.6362
rfingers 7.12502
rthumb 4.26317 -41.5733
lclavicle 2.38542e-015 6.36111e-015
lhumerus -25.6713 17.9746 30.6391
lradius 39.7666
lwrist 19.7987
lhand -23.8663 -4.28856
lfingers 7.12502
lthumb 2.60653 25.6753
rfemur -3.87495 -8.39729 21.5696
rtibia 41.1504
rfoot 2.33043 -20.5396
rtoes -7.65815
lfemur -18.8198 0.0308 -9.22415
ltibia 29.3586
lfoot -9.82999 15.2736
ltoes -6.56336
1291
root 4.05606 18.2009 22.164 6.2882 2.82555 -9.07557
lowerback 9.77423 0.721778 -4.33033
upperback 0.279356 0.4886 0.2681
thorax -5.23685 0.351175 2.65124
lowerneck -23.3129 -0.297353 4.30244
upperneck 16.8121 -1.49468 -1.62252
head 9.0563 -0.599744 -1.47227
rclavicle 9.54166e-015 -7.95139e-015
rhumerus -25.3165 -27.5065 -3.65966
rradius 41.8215
rwrist -5.59505
rhand -22.0619 -11.6082
rfingers 7.12502
rthumb 4.34903 -41.5435
lclavicle 9.54166e-015 -7.95139e-015
lhumerus -25.6099 17.9449 30.5359
lradius 39.8053
lwrist 19.8946
lhand -23.8934 -4.2994
lfingers 7.12502
lthumb 2.58028 25.6647
rfemur -4.37631 -8.60444 21.531
rtibia 41.8193
rfoot 1.77689 -21.45
rtoes -7.16859
lfemur -18.512 0.0438692 -9.43754
ltibia 29.2276
lfoot -9.976 15.2539
ltoes -6.72343
